<svg width="183" height="56" viewBox="0 0 183 56" fill="none" xmlns="http://www.w3.org/2000/svg">
<rect width="183" height="56" rx="12" fill="#EDEDF7"/>
<path d="M77.3518 34.192C76.4664 34.192 75.6078 34.0747 74.7758 33.84C73.9544 33.5947 73.2931 33.28 72.7918 32.896L73.6718 30.944C74.1518 31.296 74.7224 31.5787 75.3838 31.792C76.0451 32.0053 76.7064 32.112 77.3678 32.112C78.1038 32.112 78.6478 32.0053 78.9998 31.792C79.3518 31.568 79.5278 31.2747 79.5278 30.912C79.5278 30.6453 79.4211 30.4267 79.2078 30.256C79.0051 30.0747 78.7384 29.9307 78.4078 29.824C78.0878 29.7173 77.6504 29.6 77.0958 29.472C76.2424 29.2693 75.5438 29.0667 74.9998 28.864C74.4558 28.6613 73.9864 28.336 73.5918 27.888C73.2078 27.44 73.0158 26.8427 73.0158 26.096C73.0158 25.4453 73.1918 24.8587 73.5438 24.336C73.8958 23.8027 74.4238 23.3813 75.1278 23.072C75.8424 22.7627 76.7118 22.608 77.7358 22.608C78.4504 22.608 79.1491 22.6933 79.8318 22.864C80.5144 23.0347 81.1118 23.28 81.6238 23.6L80.8238 25.568C79.7891 24.9813 78.7544 24.688 77.7198 24.688C76.9944 24.688 76.4558 24.8053 76.1038 25.04C75.7624 25.2747 75.5918 25.584 75.5918 25.968C75.5918 26.352 75.7891 26.64 76.1838 26.832C76.5891 27.0133 77.2024 27.1947 78.0238 27.376C78.8771 27.5787 79.5758 27.7813 80.1198 27.984C80.6638 28.1867 81.1278 28.5067 81.5118 28.944C81.9064 29.3813 82.1038 29.9733 82.1038 30.72C82.1038 31.36 81.9224 31.9467 81.5598 32.48C81.2078 33.0027 80.6744 33.4187 79.9598 33.728C79.2451 34.0373 78.3758 34.192 77.3518 34.192ZM92.1309 29.728C92.1309 29.76 92.1149 29.984 92.0829 30.4H85.5709C85.6882 30.9333 85.9655 31.3547 86.4029 31.664C86.8402 31.9733 87.3842 32.128 88.0349 32.128C88.4829 32.128 88.8775 32.064 89.2189 31.936C89.5709 31.7973 89.8962 31.584 90.1949 31.296L91.5229 32.736C90.7122 33.664 89.5282 34.128 87.9709 34.128C87.0002 34.128 86.1415 33.9413 85.3949 33.568C84.6482 33.184 84.0722 32.656 83.6669 31.984C83.2615 31.312 83.0589 30.5493 83.0589 29.696C83.0589 28.8533 83.2562 28.096 83.6509 27.424C84.0562 26.7413 84.6055 26.2133 85.2989 25.84C86.0029 25.456 86.7869 25.264 87.6509 25.264C88.4935 25.264 89.2562 25.4453 89.9389 25.808C90.6215 26.1707 91.1549 26.6933 91.5389 27.376C91.9335 28.048 92.1309 28.832 92.1309 29.728ZM87.6669 27.152C87.1015 27.152 86.6269 27.312 86.2429 27.632C85.8589 27.952 85.6242 28.3893 85.5389 28.944H89.7789C89.6935 28.4 89.4589 27.968 89.0749 27.648C88.6909 27.3173 88.2215 27.152 87.6669 27.152ZM99.0246 25.264C100.091 25.264 100.95 25.584 101.601 26.224C102.262 26.864 102.593 27.8133 102.593 29.072V34H100.097V29.456C100.097 28.7733 99.9473 28.2667 99.6486 27.936C99.35 27.5947 98.918 27.424 98.3526 27.424C97.7233 27.424 97.222 27.6213 96.8486 28.016C96.4753 28.4 96.2886 28.976 96.2886 29.744V34H93.7926V25.392H96.1766V26.4C96.5073 26.0373 96.918 25.76 97.4086 25.568C97.8993 25.3653 98.438 25.264 99.0246 25.264ZM110.407 33.584C110.162 33.7653 109.858 33.904 109.495 34C109.143 34.0853 108.77 34.128 108.375 34.128C107.351 34.128 106.556 33.8667 105.991 33.344C105.436 32.8213 105.159 32.0533 105.159 31.04V27.504H103.831V25.584H105.159V23.488H107.655V25.584H109.799V27.504H107.655V31.008C107.655 31.3707 107.746 31.6533 107.927 31.856C108.119 32.048 108.386 32.144 108.727 32.144C109.122 32.144 109.458 32.0373 109.735 31.824L110.407 33.584Z" fill="#323264"/>
</svg>
